<?xml version="1.0" standalone="no"?>
<!DOCTYPE svg PUBLIC "-//W3C//DTD SVG 20010904//EN"
 "http://www.w3.org/TR/2001/REC-SVG-20010904/DTD/svg10.dtd">
<svg version="1.0" xmlns="http://www.w3.org/2000/svg"
 width="3508.000000pt" height="730.000000pt" viewBox="0 0 3508.000000 730.000000"
 preserveAspectRatio="xMidYMid meet">

<g transform="translate(0.000000,730.000000) scale(0.100000,-0.100000)"
fill="#000000" stroke="none">
<path d="M3600 7074 c-327 -22 -576 -68 -850 -156 -1146 -368 -2006 -1335
-2240 -2517 -73 -372 -79 -818 -15 -1197 143 -849 609 -1604 1307 -2120 450
-333 983 -545 1563 -620 165 -22 599 -25 760 -6 781 94 1452 417 1995 962 542
542 869 1237 950 2015 15 140 15 497 1 640 -102 1012 -632 1893 -1476 2454
-439 291 -941 471 -1480 531 -99 11 -429 20 -515 14z m461 -194 c1318 -131
2415 -1072 2744 -2355 199 -777 81 -1635 -320 -2322 -663 -1133 -1915 -1737
-3194 -1542 -1004 153 -1886 804 -2336 1724 -193 394 -285 741 -317 1193 -37
536 90 1126 348 1620 470 900 1341 1519 2339 1662 71 11 150 21 175 23 103 8
465 6 561 -3z"/>
<path d="M3486 6729 c-1014 -98 -1909 -704 -2367 -1604 -108 -211 -208 -475
-244 -642 l-7 -33 2901 0 2900 0 -20 73 c-330 1210 -1337 2073 -2571 2202
-157 16 -444 18 -592 4z"/>
<path d="M4678 4184 c-194 -47 -314 -186 -341 -393 -27 -214 38 -396 178 -503
76 -58 156 -80 312 -86 226 -8 353 39 437 161 41 60 81 156 69 167 -15 14
-266 81 -273 73 -4 -4 -13 -25 -20 -46 -48 -152 -257 -182 -346 -49 -47 69
-55 257 -15 347 47 105 172 151 272 100 32 -17 89 -81 89 -100 0 -8 3 -15 8
-15 18 1 274 59 278 63 3 3 -9 33 -26 67 -59 118 -144 185 -271 215 -80 18
-273 18 -351 -1z"/>
<path d="M1100 3699 l0 -491 338 5 c373 5 440 14 515 65 26 18 54 51 72 84 26
46 30 63 30 128 0 58 -6 85 -23 118 -20 37 -91 102 -113 102 -4 0 -20 5 -35
11 l-28 10 51 29 c142 81 135 298 -12 381 -74 41 -148 49 -487 49 l-308 0 0
-491z m560 266 c34 -31 42 -61 26 -100 -20 -48 -45 -57 -160 -58 l-101 -2 -3
79 c-2 44 0 86 3 94 4 11 25 14 109 10 86 -3 108 -7 126 -23z m10 -358 c23 -8
41 -24 54 -47 17 -32 17 -39 5 -65 -29 -59 -58 -70 -187 -70 l-117 0 -3 84
c-2 46 -1 90 2 98 7 17 196 17 246 0z"/>
<path d="M2220 3700 l0 -490 440 0 440 0 0 110 0 110 -275 0 -275 0 0 100 0
100 245 0 245 0 0 95 0 95 -245 0 -245 0 0 80 0 80 265 0 265 0 0 105 0 105
-430 0 -430 0 0 -490z"/>
<path d="M3270 3701 l0 -491 165 0 165 0 0 200 c0 194 1 200 20 200 29 0 82
-24 102 -46 9 -11 59 -93 111 -184 l94 -165 182 -3 c99 -1 181 1 181 4 0 4
-36 73 -81 155 -90 165 -138 226 -198 254 l-41 18 49 17 c133 45 202 150 188
287 -12 113 -83 196 -194 223 -30 8 -179 14 -395 17 l-348 5 0 -491z m553 276
c43 -19 61 -42 61 -83 0 -70 -70 -104 -214 -104 l-70 0 0 100 0 100 95 0 c58
0 108 -5 128 -13z"/>
<path d="M5771 4168 c-5 -13 -91 -228 -191 -478 -100 -250 -184 -461 -187
-467 -4 -10 32 -13 160 -13 l166 0 23 78 24 77 184 0 183 0 24 -77 24 -78 169
0 c94 0 170 1 170 3 0 1 -87 220 -194 487 l-194 485 -176 3 c-175 2 -176 2
-185 -20z m237 -416 c28 -87 52 -161 52 -165 0 -4 -50 -7 -111 -7 -85 0 -110
3 -107 13 3 6 27 81 53 165 27 83 51 152 54 152 4 0 30 -71 59 -158z"/>
<path d="M875 3033 c3 -20 29 -106 57 -192 149 -459 385 -847 723 -1186 389
-391 841 -650 1371 -785 271 -70 397 -84 734 -85 315 0 370 5 620 55 436 88
880 295 1242 582 132 104 372 344 476 476 251 317 444 699 546 1080 l25 92
-2901 0 -2900 0 7 -37z"/>
<path d="M15010 4469 l0 -550 -48 58 c-136 163 -306 270 -508 320 -107 26
-334 23 -448 -5 -191 -48 -336 -133 -481 -284 -109 -112 -143 -160 -200 -281
-71 -152 -90 -243 -89 -437 1 -143 5 -178 26 -260 47 -175 124 -313 250 -446
133 -140 275 -230 443 -280 110 -32 320 -44 441 -24 202 32 383 129 540 287
l74 75 0 -161 0 -161 125 0 125 0 0 1350 0 1350 -125 0 -125 0 0 -551z m-540
-430 c129 -35 224 -92 325 -194 151 -150 214 -297 222 -521 10 -245 -51 -423
-200 -582 -98 -104 -264 -193 -414 -222 -102 -20 -282 -9 -378 24 -145 49
-285 150 -370 266 -103 141 -157 305 -157 480 0 391 268 710 647 770 86 13
238 4 325 -21z"/>
<path d="M27467 5013 c-4 -3 -7 -611 -7 -1350 l0 -1343 130 0 130 0 0 435 0
435 486 -435 487 -435 181 0 181 1 -35 31 c-19 18 -272 245 -562 506 -291 261
-528 477 -527 480 0 4 232 207 515 452 283 245 522 453 531 463 15 16 7 17
-170 17 l-185 0 -449 -390 -448 -390 -3 765 -2 765 -123 0 c-68 0 -127 -3
-130 -7z"/>
<path d="M7810 3635 l0 -1315 135 0 135 0 0 630 0 630 660 0 660 0 0 -630 0
-630 140 0 140 0 0 1315 0 1315 -140 0 -140 0 0 -550 0 -550 -660 0 -660 0 0
550 0 550 -135 0 -135 0 0 -1315z"/>
<path d="M10863 4310 c-382 -54 -715 -345 -829 -726 -23 -76 -27 -113 -32
-250 -5 -180 7 -262 56 -403 104 -293 380 -551 677 -633 68 -18 107 -22 260
-22 158 -1 189 2 258 22 166 48 300 126 435 256 l82 79 0 -157 0 -156 130 0
130 0 -2 973 -3 972 -125 0 -125 0 -3 -168 -2 -168 -87 92 c-141 148 -272 227
-445 269 -95 23 -282 33 -375 20z m356 -266 c144 -35 294 -130 391 -247 61
-74 131 -215 156 -312 26 -103 24 -314 -4 -418 -42 -154 -141 -307 -255 -393
-82 -62 -223 -128 -321 -149 -107 -24 -293 -16 -386 15 -228 77 -389 228 -481
452 -99 240 -72 512 71 732 120 184 303 301 525 337 70 11 224 3 304 -17z"/>
<path d="M12963 4305 c-77 -21 -140 -53 -207 -107 -58 -46 -173 -171 -178
-193 -1 -5 -5 51 -8 125 l-5 135 -130 0 -130 0 -3 -972 -2 -973 134 0 134 0 5
558 c5 600 10 668 58 817 57 180 160 303 291 351 56 20 153 21 201 1 l37 -16
25 39 c65 103 105 171 105 179 0 10 -83 44 -145 60 -53 14 -119 13 -182 -4z"/>
<path d="M16445 4314 c-248 -38 -430 -128 -597 -296 -185 -188 -282 -403 -295
-660 -16 -315 76 -564 291 -787 158 -163 335 -258 540 -291 120 -20 331 -8
439 24 168 50 275 114 415 250 l92 89 0 -162 0 -161 125 0 125 0 0 975 0 975
-125 0 -125 0 -2 -174 -3 -175 -52 64 c-115 140 -305 262 -478 305 -78 20
-284 34 -350 24z m338 -273 c217 -56 408 -223 496 -434 47 -115 64 -221 58
-361 -6 -146 -23 -212 -84 -336 -82 -167 -237 -297 -438 -367 -74 -25 -92 -27
-235 -28 -145 0 -160 2 -235 28 -119 42 -210 99 -300 191 -156 159 -229 335
-229 556 0 401 279 721 674 773 64 9 217 -3 293 -22z"/>
<path d="M20508 4309 c-223 -32 -406 -128 -569 -296 -156 -160 -236 -309 -280
-518 -17 -77 -17 -323 0 -400 80 -382 347 -681 708 -792 81 -25 102 -27 268
-27 146 -1 193 3 249 18 173 46 324 135 457 267 l79 77 0 -159 0 -159 125 0
125 0 0 975 0 975 -125 0 -125 0 0 -176 0 -176 -38 49 c-207 260 -541 391
-874 342z m372 -270 c215 -59 407 -229 493 -434 79 -189 76 -471 -7 -658 -167
-379 -653 -550 -1028 -361 -195 97 -323 252 -400 480 -20 60 -23 88 -23 224 0
174 10 220 75 350 117 233 315 380 565 420 86 13 238 4 325 -21z"/>
<path d="M22938 4309 c-219 -32 -374 -114 -540 -287 l-88 -91 -2 167 -3 167
-127 3 -128 3 0 -1331 0 -1330 130 0 130 0 0 511 0 512 83 -80 c135 -129 255
-202 414 -249 70 -21 117 -27 226 -31 202 -8 329 17 487 97 179 90 360 273
455 460 128 253 138 606 25 872 -82 193 -260 389 -451 497 -170 96 -412 139
-611 110z m246 -254 c292 -51 515 -254 600 -547 81 -281 6 -568 -204 -778 -98
-98 -164 -140 -287 -183 -121 -42 -285 -49 -417 -18 -163 39 -327 139 -422
259 -194 245 -218 638 -55 912 164 273 467 410 785 355z"/>
<path d="M25089 4305 c-211 -33 -377 -122 -532 -284 -131 -137 -216 -289 -265
-470 -22 -85 -25 -115 -25 -261 0 -146 3 -176 26 -262 79 -296 277 -548 522
-664 158 -75 229 -89 460 -89 178 0 209 3 285 24 179 48 331 141 458 277 67
72 168 216 187 266 5 13 -15 27 -97 70 -57 29 -106 53 -110 53 -3 0 -28 -34
-55 -75 -101 -153 -182 -229 -318 -295 -120 -59 -232 -85 -365 -85 -135 0
-223 19 -329 72 -70 34 -104 60 -177 133 -78 77 -98 105 -138 187 -48 99 -86
240 -86 326 l0 42 875 0 874 0 -5 68 c-18 236 -83 426 -197 578 -59 77 -185
198 -260 247 -196 130 -466 183 -728 142z m376 -260 c163 -43 335 -163 416
-289 36 -54 88 -176 103 -238 l6 -28 -720 0 -720 0 26 73 c37 100 74 172 128
244 92 123 263 222 434 253 67 13 256 4 327 -15z"/>
<path d="M27130 4310 c-115 -24 -248 -117 -361 -253 l-48 -57 -3 132 -3 133
-130 0 -130 0 -3 -972 -2 -973 134 0 134 0 5 553 c3 326 10 585 16 632 38 268
137 443 296 521 61 30 85 36 137 36 35 0 80 -7 101 -15 l38 -16 42 67 c70 110
87 139 87 150 0 5 -30 22 -67 37 -75 30 -172 40 -243 25z"/>
<path d="M29896 4309 c-210 -31 -384 -117 -540 -268 -188 -183 -286 -372 -316
-615 -40 -313 56 -612 267 -836 136 -145 277 -235 448 -286 110 -32 320 -44
441 -24 201 32 382 128 540 287 l74 73 0 -160 0 -160 125 0 125 0 0 975 0 975
-125 0 -125 0 0 -176 0 -175 -49 59 c-214 257 -533 379 -865 331z m374 -270
c129 -35 224 -92 325 -194 99 -98 153 -187 195 -320 32 -99 39 -300 16 -415
-60 -293 -266 -505 -566 -581 -120 -31 -301 -24 -415 15 -145 49 -285 150
-370 266 -103 141 -157 304 -157 480 0 184 54 344 166 489 114 148 290 251
479 280 88 14 239 5 327 -20z"/>
<path d="M31760 4309 c-181 -30 -358 -192 -406 -373 -19 -70 -18 -210 2 -277
53 -179 169 -290 472 -453 273 -147 342 -220 342 -367 0 -94 -24 -154 -84
-214 -166 -166 -417 -146 -619 49 l-57 54 -80 -91 -79 -90 30 -38 c69 -87 234
-186 367 -220 85 -22 239 -26 324 -8 101 21 196 75 278 158 119 120 170 239
170 401 0 156 -52 272 -170 383 -75 70 -148 117 -397 257 -200 112 -278 205
-277 330 0 105 57 189 159 236 39 19 67 24 127 24 119 0 213 -39 341 -144 l55
-45 82 85 82 85 -48 42 c-204 181 -401 251 -614 216z"/>
<path d="M33446 4310 c-147 -24 -298 -82 -413 -161 -77 -53 -217 -194 -273
-275 -247 -357 -235 -854 30 -1205 134 -179 323 -310 536 -371 69 -20 101 -23
254 -23 139 0 189 4 244 19 173 46 328 137 457 266 l79 79 0 -160 0 -159 130
0 130 0 -2 973 -3 972 -127 3 -128 3 0 -172 0 -172 -84 90 c-186 198 -386 289
-651 298 -66 2 -147 0 -179 -5z m280 -251 c163 -23 314 -100 430 -221 108
-112 166 -220 199 -372 27 -120 18 -333 -19 -441 -43 -126 -90 -201 -185 -295
-147 -146 -329 -220 -541 -220 -131 0 -230 23 -339 80 -154 80 -259 187 -337
345 -112 228 -114 473 -5 700 148 308 456 472 797 424z"/>
<path d="M17750 4259 c0 -6 178 -412 395 -901 l395 -891 -185 -424 c-102 -233
-185 -426 -185 -429 0 -2 61 -3 136 -2 l136 3 575 1315 c316 723 575 1320 576
1325 3 16 -258 19 -270 3 -5 -7 -151 -340 -324 -740 -173 -401 -316 -728 -319
-728 -3 0 -151 327 -330 728 -178 400 -328 733 -333 740 -12 16 -267 17 -267
1z"/>
<path d="M13733 1366 c-133 -33 -241 -118 -296 -233 -28 -60 -32 -78 -31 -153
0 -72 4 -94 27 -141 33 -68 122 -156 196 -194 236 -119 546 -26 650 195 22 46
26 69 26 145 0 81 -3 97 -32 155 -37 75 -84 124 -166 174 -101 60 -253 81
-374 52z m271 -97 c65 -24 148 -95 179 -153 18 -33 22 -58 22 -131 0 -80 -3
-95 -27 -135 -123 -208 -447 -235 -609 -52 -97 111 -87 294 23 399 40 38 122
81 180 93 61 13 168 3 232 -21z"/>
<path d="M22600 1373 c-108 -18 -235 -90 -293 -166 -126 -166 -88 -395 86
-524 176 -129 472 -118 645 24 l43 35 -35 24 c-43 30 -44 30 -75 0 -72 -68
-221 -107 -336 -88 -187 31 -300 147 -300 307 0 160 110 273 297 305 117 21
257 -15 339 -88 l35 -31 32 21 c18 11 32 23 32 28 0 15 -80 80 -129 105 -91
45 -235 66 -341 48z"/>
<path d="M27503 1366 c-127 -31 -239 -120 -295 -235 -28 -56 -32 -74 -32 -146
0 -72 4 -90 32 -147 121 -246 479 -324 710 -154 62 46 95 85 133 156 21 39 24
59 24 145 0 89 -3 106 -28 156 -32 67 -113 147 -185 183 -103 52 -246 69 -359
42z m269 -96 c135 -51 208 -152 208 -284 0 -160 -111 -276 -291 -305 -159 -26
-314 43 -385 171 -25 45 -29 64 -29 128 0 62 5 85 28 132 77 156 288 227 469
158z"/>
<path d="M30621 1370 c-125 -27 -244 -115 -302 -223 -27 -52 -34 -75 -37 -143
-5 -99 12 -157 66 -229 165 -217 507 -245 712 -58 97 89 140 205 121 324 -22
135 -134 260 -278 310 -67 23 -214 33 -282 19z m250 -100 c157 -58 240 -191
210 -337 -31 -158 -166 -255 -351 -255 -98 0 -151 16 -227 68 -151 104 -171
316 -41 446 100 100 267 132 409 78z"/>
<path d="M32414 1365 c-133 -29 -258 -124 -310 -238 -24 -52 -29 -75 -29 -142
0 -71 4 -89 33 -147 63 -128 184 -209 351 -236 165 -27 317 9 416 99 65 60
103 134 112 219 l6 60 -189 -2 -189 -3 0 -40 0 -40 134 -3 133 -3 -7 -27 c-31
-129 -216 -215 -395 -182 -218 39 -347 206 -296 382 31 109 138 195 278 224
114 24 248 -4 349 -72 28 -19 56 -34 63 -34 7 0 25 13 40 29 l27 28 -56 37
c-142 95 -307 127 -471 91z"/>
<path d="M9140 985 l0 -375 142 0 c183 0 243 15 309 79 60 59 78 112 60 179
-14 56 -60 107 -117 133 l-42 19 43 43 c71 71 71 160 0 232 -50 50 -113 65
-267 65 l-128 0 0 -375z m266 284 c76 -19 105 -85 67 -150 -24 -40 -73 -60
-164 -66 l-79 -6 0 117 0 116 66 0 c36 0 85 -5 110 -11z m69 -328 c107 -47
112 -172 10 -221 -32 -15 -72 -23 -149 -27 l-106 -6 0 143 0 143 100 -6 c67
-4 115 -13 145 -26z"/>
<path d="M10580 985 l0 -375 245 0 245 0 0 40 0 40 -200 0 -200 0 0 140 0 140
200 0 200 0 0 45 0 45 -200 0 -200 0 0 110 0 110 205 0 205 0 0 40 0 40 -250
0 -250 0 0 -375z"/>
<path d="M11925 1333 c10 -14 70 -99 134 -187 l116 -161 5 -185 5 -185 45 0
45 0 3 179 2 179 102 146 c56 80 117 167 136 194 l34 47 -55 0 -55 0 -102
-145 c-56 -80 -105 -147 -108 -149 -4 -2 -54 63 -112 145 l-105 149 -54 0 -53
0 17 -27z"/>
<path d="M15232 988 l3 -373 48 -3 47 -3 0 276 0 277 280 -274 c155 -150 285
-274 290 -276 6 -2 10 136 10 372 l0 376 -45 0 -45 0 0 -282 0 -283 -283 283
c-155 155 -288 282 -295 282 -10 0 -12 -79 -10 -372z"/>
<path d="M16872 989 l3 -374 165 -3 c266 -4 379 25 464 119 63 70 88 130 94
220 11 179 -86 322 -257 379 -57 20 -93 23 -269 28 l-202 5 2 -374z m430 261
c130 -40 199 -135 199 -274 0 -95 -20 -145 -83 -201 -69 -62 -120 -75 -305
-82 l-153 -6 0 298 0 298 138 -6 c95 -4 158 -13 204 -27z"/>
<path d="M19520 1320 l0 -40 95 0 95 0 2 -332 3 -333 45 0 45 0 3 333 2 332
95 0 95 0 0 40 0 40 -240 0 -240 0 0 -40z"/>
<path d="M20872 988 l3 -373 248 -3 247 -2 0 40 0 40 -200 0 -200 0 0 140 0
140 200 0 200 0 0 45 0 45 -200 0 -200 0 0 110 0 110 200 0 200 0 0 40 0 40
-250 0 -250 0 2 -372z"/>
<path d="M24000 985 l0 -375 45 0 45 0 0 180 0 180 215 0 215 0 0 -180 0 -180
45 0 45 0 0 375 0 375 -45 0 -45 0 0 -155 0 -155 -215 0 -215 0 0 155 0 155
-45 0 -45 0 0 -375z"/>
<path d="M25572 988 l3 -373 45 0 45 0 5 273 5 272 275 -275 c151 -151 281
-275 287 -275 10 0 13 81 13 375 l0 375 -45 0 -45 0 0 -282 0 -283 -283 283
c-155 155 -288 282 -295 282 -10 0 -12 -79 -10 -372z"/>
<path d="M29002 988 l3 -373 210 0 210 0 3 38 3 37 -165 0 -166 0 0 335 0 335
-50 0 -50 0 2 -372z"/>
<path d="M33846 1348 c4 -7 65 -94 135 -194 l129 -181 2 -179 3 -179 45 0 45
0 5 185 5 185 99 140 c55 77 115 161 133 188 l35 47 -55 0 -55 0 -107 -151
-106 -150 -94 129 c-51 71 -99 139 -107 151 -10 17 -23 21 -66 21 -40 0 -51
-3 -46 -12z"/>
</g>
</svg>
